<svg xmlns="http://www.w3.org/2000/svg" viewBox="0 0 800 500">
  <defs>
    <linearGradient id="ed-bg" x1="0" y1="0" x2="1" y2="1">
      <stop offset="0%" stop-color="#16130f"/>
      <stop offset="100%" stop-color="#0a0a0a"/>
    </linearGradient>
  </defs>
  <rect width="800" height="500" fill="url(#ed-bg)"/>

  <text x="40" y="40" font-family="ui-monospace, 'SF Mono', monospace" font-size="11" letter-spacing="3" fill="#4d4940">EDTECH MARKETPLACE · MOBILE · LIVE 1-ON-1</text>

  <g transform="translate(120, 80)">
    <rect width="220" height="380" fill="#181818" stroke="#8aa3bd" stroke-opacity="0.2" rx="28"/>
    <rect x="80" y="14" width="60" height="6" fill="#0a0a0a" rx="3"/>

    <g font-family="Inter, sans-serif" fill="#8a857c">
      <text x="20" y="60" font-size="11" letter-spacing="2" fill="#8aa3bd">EXPLORE</text>
      <text x="20" y="86" font-size="16" fill="#eeeae0" font-weight="500">Find your tutor</text>

      <g transform="translate(20, 110)">
        <rect width="180" height="26" fill="#0a0a0a" rx="13"/>
        <text x="14" y="17" font-size="10" fill="#4d4940">Search subjects, levels…</text>
      </g>

      <g transform="translate(20, 156)">
        <rect width="84" height="86" fill="#0a0a0a" rx="10" stroke="#8aa3bd" stroke-opacity="0.2"/>
        <circle cx="42" cy="34" r="14" fill="#8aa3bd" fill-opacity="0.4"/>
        <text x="42" y="62" text-anchor="middle" font-size="10" fill="#eeeae0">Sara K.</text>
        <text x="42" y="76" text-anchor="middle" font-size="8" fill="#8aa3bd">★ 4.9</text>
      </g>
      <g transform="translate(116, 156)">
        <rect width="84" height="86" fill="#0a0a0a" rx="10" stroke="#8aa3bd" stroke-opacity="0.2"/>
        <circle cx="42" cy="34" r="14" fill="#8aa3bd" fill-opacity="0.3"/>
        <text x="42" y="62" text-anchor="middle" font-size="10" fill="#eeeae0">Omar A.</text>
        <text x="42" y="76" text-anchor="middle" font-size="8" fill="#8aa3bd">★ 5.0</text>
      </g>

      <text x="20" y="270" font-size="10" letter-spacing="2" fill="#8aa3bd">AI MATCH SCORE</text>
      <g transform="translate(20, 280)">
        <rect width="180" height="6" fill="#0a0a0a" rx="3"/>
        <rect width="160" height="6" fill="#8aa3bd" rx="3"/>
      </g>
      <text x="20" y="306" font-size="11" fill="#eeeae0">94% — strong subject + schedule fit</text>
    </g>

    <g transform="translate(20, 340)">
      <rect width="180" height="34" fill="#8aa3bd" rx="17"/>
      <text x="90" y="22" text-anchor="middle" font-family="Inter, sans-serif" font-size="12" font-weight="500" fill="#0a0a0a">Book session</text>
    </g>
  </g>

  <g transform="translate(420, 100)">
    <text font-family="ui-monospace, 'SF Mono', monospace" font-size="11" letter-spacing="2" fill="#8aa3bd">▸ LIVE SESSION</text>

    <rect x="0" y="20" width="280" height="160" fill="#0a0a0a" stroke="#8aa3bd" stroke-opacity="0.2" rx="10"/>
    <circle cx="140" cy="100" r="36" fill="#181818" stroke="#8aa3bd" stroke-width="2"/>
    <polygon points="130,85 130,115 158,100" fill="#8aa3bd"/>

    <g font-family="ui-monospace, 'SF Mono', monospace" font-size="10" fill="#4d4940">
      <text x="12" y="40">AGORA RTC · HD VIDEO</text>
      <text x="12" y="170">●  REC  ·  00:24:18</text>
    </g>

    <g transform="translate(0, 200)" font-family="Inter, sans-serif" font-size="11" fill="#8a857c">
      <rect width="280" height="60" fill="#181818" stroke="#8aa3bd" stroke-opacity="0.2" rx="8"/>
      <text x="14" y="22" fill="#eeeae0" font-weight="500">Stripe Connect</text>
      <text x="14" y="40" fill="#8a857c">$45.00 → tutor (after fee)</text>
      <text x="266" y="40" text-anchor="end" font-family="ui-monospace, 'SF Mono', monospace" font-size="10" fill="#8aa3bd">PAID</text>
    </g>

    <g transform="translate(0, 280)" font-family="ui-monospace, 'SF Mono', monospace" font-size="10" fill="#4d4940" letter-spacing="2">
      <text>187/187 TESTS PASSED · 39 SCREENS · 26 RLS POLICIES</text>
    </g>
  </g>
</svg>
