<svg xmlns="http://www.w3.org/2000/svg" viewBox="0 0 800 500">
  <defs>
    <linearGradient id="lg-bg" x1="0" y1="0" x2="1" y2="1">
      <stop offset="0%" stop-color="#0a0a0a"/>
      <stop offset="100%" stop-color="#181818"/>
    </linearGradient>
    <linearGradient id="lg-map" x1="0" y1="0" x2="0" y2="1">
      <stop offset="0%" stop-color="#1a1a1a"/>
      <stop offset="100%" stop-color="#0e0e0e"/>
    </linearGradient>
  </defs>
  <rect width="800" height="500" fill="url(#lg-bg)"/>

  <text x="40" y="40" font-family="ui-monospace, 'SF Mono', monospace" font-size="11" letter-spacing="3" fill="#4d4940">LOGISTICS · ON-DEMAND DELIVERY · LIVE TRACKING</text>

  <g transform="translate(140, 70)">
    <rect width="240" height="400" fill="#181818" stroke="#8aa3bd" stroke-opacity="0.2" rx="28"/>
    <rect x="90" y="14" width="60" height="6" fill="#0a0a0a" rx="3"/>

    <g transform="translate(14, 40)">
      <rect width="212" height="220" fill="url(#lg-map)" rx="10"/>

      <g stroke="#2a2722" stroke-width="0.8" fill="none">
        <line x1="0" y1="40" x2="212" y2="40"/>
        <line x1="0" y1="100" x2="212" y2="100"/>
        <line x1="0" y1="160" x2="212" y2="160"/>
        <line x1="60" y1="0" x2="60" y2="220"/>
        <line x1="140" y1="0" x2="140" y2="220"/>
      </g>

      <path d="M 30 190 L 60 190 L 60 100 L 140 100 L 140 50 L 180 50"
            stroke="#8aa3bd" stroke-width="3" fill="none" stroke-linecap="round" stroke-linejoin="round"/>

      <g transform="translate(30, 190)">
        <circle r="9" fill="#0a0a0a" stroke="#eeeae0" stroke-width="2"/>
        <circle r="3" fill="#eeeae0"/>
      </g>

      <g transform="translate(180, 50)">
        <circle r="11" fill="#8aa3bd" fill-opacity="0.25"/>
        <rect x="-4" y="-12" width="8" height="14" fill="#8aa3bd"/>
        <polygon points="-4,2 4,2 0,8" fill="#8aa3bd"/>
      </g>

      <g transform="translate(110, 95)">
        <circle r="14" fill="#8aa3bd" fill-opacity="0.18">
          <animate attributeName="r" values="12;18;12" dur="2s" repeatCount="indefinite"/>
        </circle>
        <rect x="-7" y="-5" width="14" height="10" fill="#0a0a0a" stroke="#8aa3bd" stroke-width="1.5" rx="2"/>
        <circle cx="-4" cy="6" r="2" fill="#8aa3bd"/>
        <circle cx="4" cy="6" r="2" fill="#8aa3bd"/>
      </g>
    </g>

    <g transform="translate(14, 280)">
      <rect width="212" height="100" fill="#0a0a0a" rx="12"/>
      <g font-family="Inter, sans-serif" fill="#eeeae0">
        <text x="14" y="22" font-size="11" fill="#8aa3bd" letter-spacing="2">DRIVER ARRIVING</text>
        <text x="14" y="46" font-size="22" font-weight="500">3 min</text>
        <text x="14" y="68" font-size="11" fill="#8a857c">Mahmoud · Honda Civic · LMR 4421</text>

        <g transform="translate(160, 30)">
          <circle r="22" fill="#181818" stroke="#8aa3bd" stroke-width="1"/>
          <circle r="20" fill="#8aa3bd" fill-opacity="0.3"/>
          <text text-anchor="middle" y="5" font-size="14" font-weight="600" fill="#eeeae0">M</text>
        </g>
      </g>

      <g transform="translate(14, 78)" font-family="ui-monospace, 'SF Mono', monospace" font-size="9" fill="#4d4940" letter-spacing="2">
        <text>★ 4.92  ·  1,284 TRIPS</text>
      </g>
    </g>
  </g>

  <g transform="translate(440, 100)">
    <text font-family="ui-monospace, 'SF Mono', monospace" font-size="11" letter-spacing="2" fill="#8aa3bd">▸ TRIP IN PROGRESS</text>

    <g transform="translate(0, 24)">
      <rect width="280" height="80" fill="#181818" stroke="#8aa3bd" stroke-opacity="0.2" rx="10"/>
      <g font-family="Inter, sans-serif">
        <text x="14" y="24" font-size="10" fill="#8aa3bd" letter-spacing="2">ROUTE</text>
        <text x="14" y="46" font-size="13" fill="#eeeae0">Pickup · 142 King St</text>
        <text x="14" y="64" font-size="13" fill="#eeeae0">Drop-off · 88 Bay St</text>
      </g>
      <g transform="translate(245, 28)" font-family="ui-monospace, 'SF Mono', monospace" font-size="11" fill="#8aa3bd" letter-spacing="2" text-anchor="end">
        <text>2.4 km</text>
        <text y="20" fill="#8a857c" font-size="9">~9 min</text>
      </g>
    </g>

    <g transform="translate(0, 124)">
      <rect width="280" height="60" fill="#181818" stroke="#8aa3bd" stroke-opacity="0.2" rx="10"/>
      <text x="14" y="22" font-family="ui-monospace, 'SF Mono', monospace" font-size="10" letter-spacing="2" fill="#8aa3bd">LIVE STATUS</text>
      <text x="14" y="44" font-family="Inter, sans-serif" font-size="13" fill="#eeeae0">▸ En route · 3 min away</text>
    </g>

    <g transform="translate(0, 204)">
      <rect width="280" height="60" fill="#181818" stroke="#8aa3bd" stroke-opacity="0.2" rx="10"/>
      <text x="14" y="22" font-family="ui-monospace, 'SF Mono', monospace" font-size="10" letter-spacing="2" fill="#8aa3bd">MESSAGES</text>
      <text x="14" y="44" font-family="Inter, sans-serif" font-size="12" fill="#8a857c">"Im outside in 2" — Mahmoud · 14:32</text>
    </g>

    <g transform="translate(0, 290)" font-family="ui-monospace, 'SF Mono', monospace" font-size="10" letter-spacing="2" fill="#4d4940">
      <text>FLUTTER · FIREBASE · RIVERPOD · GOROUTER · APK DELIVERED</text>
    </g>
  </g>
</svg>
