<svg xmlns="http://www.w3.org/2000/svg" viewBox="0 0 800 500">
  <defs>
    <linearGradient id="mp-bg" x1="0" y1="0" x2="1" y2="1">
      <stop offset="0%" stop-color="#0a0a0a"/>
      <stop offset="100%" stop-color="#181818"/>
    </linearGradient>
    <radialGradient id="mp-glow" cx="80%" cy="20%" r="60%">
      <stop offset="0%" stop-color="#8aa3bd" stop-opacity="0.35"/>
      <stop offset="100%" stop-color="#8aa3bd" stop-opacity="0"/>
    </radialGradient>
  </defs>
  <rect width="800" height="500" fill="url(#mp-bg)"/>
  <rect width="800" height="500" fill="url(#mp-glow)"/>

  <g stroke="#8aa3bd" stroke-opacity="0.25" stroke-width="1" fill="none">
    <path d="M 100 380 L 700 380"/>
    <path d="M 100 380 Q 400 300 700 380" stroke-dasharray="4 4"/>
    <path d="M 250 380 L 250 50"/>
    <path d="M 550 380 L 550 50"/>
    <path d="M 100 380 L 700 380 L 600 480 L 200 480 Z" stroke-opacity="0.15"/>
  </g>

  <g transform="translate(380, 320)">
    <rect x="0" y="0" width="40" height="60" fill="none" stroke="#8aa3bd" stroke-width="2"/>
    <line x1="20" y1="60" x2="20" y2="80" stroke="#8aa3bd" stroke-width="2"/>
    <circle cx="20" cy="85" r="6" fill="#8aa3bd"/>
    <circle cx="20" cy="30" r="4" fill="#8aa3bd"/>
  </g>

  <g font-family="ui-monospace, 'SF Mono', monospace" font-size="11" fill="#8aa3bd" letter-spacing="2">
    <text x="40" y="40">PERCEPTION ▸ ACTIVE</text>
    <text x="40" y="60" fill="#4d4940">FRAME 0042 / SEGFORMER-B0</text>
  </g>
  <g font-family="ui-monospace, 'SF Mono', monospace" font-size="11" fill="#4d4940" letter-spacing="2" text-anchor="end">
    <text x="760" y="40">JETSON ORIN NX</text>
    <text x="760" y="60">23.4 FPS · TENSORRT</text>
  </g>

  <g transform="translate(40, 440)">
    <rect x="0" y="0" width="120" height="3" fill="#8aa3bd"/>
    <rect x="130" y="0" width="60" height="3" fill="#8aa3bd" fill-opacity="0.5"/>
    <rect x="200" y="0" width="40" height="3" fill="#8aa3bd" fill-opacity="0.3"/>
  </g>
</svg>
