<svg xmlns="http://www.w3.org/2000/svg" viewBox="0 0 800 500">
  <defs>
    <linearGradient id="mp-sky" x1="0" y1="0" x2="0" y2="1">
      <stop offset="0%" stop-color="#0a0a0a"/>
      <stop offset="60%" stop-color="#16130f"/>
      <stop offset="100%" stop-color="#0a0a0a"/>
    </linearGradient>
  </defs>
  <rect width="800" height="500" fill="url(#mp-sky)"/>

  <text x="40" y="40" font-family="ui-monospace, 'SF Mono', monospace" font-size="11" letter-spacing="3" fill="#4d4940">MICROPILOT · PERCEPTION OUTPUT · JETSON ORIN NX</text>

  <g>
    <polygon points="0,500 800,500 540,200 260,200" fill="#181818"/>

    <g stroke="#3a342c" stroke-width="1" fill="none">
      <line x1="260" y1="200" x2="0" y2="500" stroke-dasharray="6 6"/>
      <line x1="540" y1="200" x2="800" y2="500" stroke-dasharray="6 6"/>
      <line x1="332" y1="200" x2="200" y2="500"/>
      <line x1="468" y1="200" x2="600" y2="500"/>
      <line x1="400" y1="200" x2="400" y2="500" stroke-dasharray="14 14" stroke="#8aa3bd" stroke-opacity="0.4"/>
    </g>

    <polygon points="260,200 332,200 200,500 0,500 0,460" fill="#8aa3bd" fill-opacity="0.18"/>
    <polygon points="468,200 540,200 800,460 800,500 600,500" fill="#8aa3bd" fill-opacity="0.18"/>

    <polygon points="332,200 468,200 600,500 200,500" fill="#eeeae0" fill-opacity="0.04"/>
  </g>

  <g transform="translate(380, 360)">
    <rect x="-32" y="-18" width="64" height="36" fill="none" stroke="#8aa3bd" stroke-width="2" rx="3"/>
    <text x="0" y="-26" text-anchor="middle" font-family="ui-monospace, 'SF Mono', monospace" font-size="10" fill="#8aa3bd" letter-spacing="2">VEHICLE · 28m</text>
    <line x1="-32" y1="0" x2="-44" y2="0" stroke="#8aa3bd" stroke-width="1"/>
    <line x1="32" y1="0" x2="44" y2="0" stroke="#8aa3bd" stroke-width="1"/>
  </g>

  <g transform="translate(620, 280)">
    <rect x="-14" y="-26" width="28" height="44" fill="none" stroke="#d6c98e" stroke-width="2" rx="2"/>
    <circle cx="0" cy="-30" r="6" fill="none" stroke="#d6c98e" stroke-width="2"/>
    <text x="0" y="36" text-anchor="middle" font-family="ui-monospace, 'SF Mono', monospace" font-size="10" fill="#d6c98e" letter-spacing="2">PED · 12m</text>
  </g>

  <g font-family="ui-monospace, 'SF Mono', monospace" font-size="11" letter-spacing="2">
    <g transform="translate(40, 90)">
      <rect width="180" height="22" fill="#0a0a0a" stroke="#8aa3bd" stroke-opacity="0.3"/>
      <text x="10" y="15" fill="#8aa3bd">▸ LANE · LOCKED</text>
    </g>
    <g transform="translate(40, 120)">
      <rect width="180" height="22" fill="#0a0a0a" stroke="#8aa3bd" stroke-opacity="0.2"/>
      <text x="10" y="15" fill="#8a857c">SPEED   12.4 km/h</text>
    </g>
    <g transform="translate(40, 150)">
      <rect width="180" height="22" fill="#0a0a0a" stroke="#8aa3bd" stroke-opacity="0.2"/>
      <text x="10" y="15" fill="#8a857c">HEADING 002°</text>
    </g>
  </g>

  <g font-family="ui-monospace, 'SF Mono', monospace" font-size="11" letter-spacing="2" text-anchor="end">
    <g transform="translate(760, 90)">
      <rect x="-180" y="0" width="180" height="22" fill="#0a0a0a" stroke="#8aa3bd" stroke-opacity="0.3"/>
      <text x="-10" y="15" fill="#8aa3bd">▸ 23.4 FPS</text>
    </g>
    <g transform="translate(760, 120)">
      <rect x="-180" y="0" width="180" height="22" fill="#0a0a0a" stroke="#8aa3bd" stroke-opacity="0.2"/>
      <text x="-10" y="15" fill="#8a857c">SUPERCOMBO   42ms</text>
    </g>
    <g transform="translate(760, 150)">
      <rect x="-180" y="0" width="180" height="22" fill="#0a0a0a" stroke="#8aa3bd" stroke-opacity="0.2"/>
      <text x="-10" y="15" fill="#8a857c">SEGFORMER-B0 18ms</text>
    </g>
  </g>

  <g font-family="ui-monospace, 'SF Mono', monospace" font-size="9" letter-spacing="3" fill="#4d4940">
    <text x="20" y="492">SUPERCOMBO · LANES</text>
    <text x="780" y="492" text-anchor="end">SEGFORMER-B0 · SIDEWALK</text>
  </g>
  <g transform="translate(20, 484)"><rect width="14" height="3" fill="#8aa3bd" fill-opacity="0.6"/></g>
  <g transform="translate(766, 484)"><rect width="14" height="3" fill="#8aa3bd" fill-opacity="0.18"/></g>
</svg>
